<svg width="12442" height="3241" viewBox="0 0 12442 3241" fill="none" xmlns="http://www.w3.org/2000/svg">
<path opacity="0.52" d="M6549.49 2632.14C7234.87 2632.14 7790.47 2076.53 7790.47 1391.16C7790.47 705.785 7234.87 150.18 6549.49 150.18C5864.12 150.18 5308.51 705.785 5308.51 1391.16C5308.51 2076.53 5864.12 2632.14 6549.49 2632.14Z" fill="url(#paint0_radial_1199_355)"/>
<path d="M6422.46 1789.87C6639.12 1789.87 6814.76 1614.23 6814.76 1397.57C6814.76 1180.9 6639.12 1005.27 6422.46 1005.27C6205.8 1005.27 6030.16 1180.9 6030.16 1397.57C6030.16 1614.23 6205.8 1789.87 6422.46 1789.87Z" fill="#FFCA54"/>
<path d="M6495.56 1819.89C6742.8 1819.89 6943.23 1619.46 6943.23 1372.22C6943.23 1124.98 6742.8 924.547 6495.56 924.547C6248.32 924.547 6047.89 1124.98 6047.89 1372.22C6047.89 1619.46 6248.32 1819.89 6495.56 1819.89Z" fill="#FCD27E"/>
<path d="M6488.14 923.986L6040.78 1316.3C6040.78 1316.3 6013.95 1396.29 6046.73 1512.45L6671.24 959.086C6671.24 959.086 6553.7 915.646 6488.14 923.986Z" fill="#FFE5B0"/>
<path d="M6495.56 1756.11C6707.58 1756.11 6879.45 1584.23 6879.45 1372.22C6879.45 1160.2 6707.58 988.328 6495.56 988.328C6283.54 988.328 6111.67 1160.2 6111.67 1372.22C6111.67 1584.23 6283.54 1756.11 6495.56 1756.11Z" fill="#EAA22D"/>
<path d="M6846.82 1095.44L6801.48 1140.23C6801.48 1140.23 6811.92 1152.77 6833.68 1189.27L6881.35 1143.99C6881.35 1143.99 6865.72 1115.61 6846.82 1095.44Z" fill="#FFE5B0"/>
<path opacity="0.4" d="M6838.08 1198.73L6308.17 1707.55C6308.17 1707.55 6371.44 1740.9 6409.82 1746.59L6870.53 1288.45C6870.53 1288.45 6850.94 1220.47 6838.08 1198.73Z" fill="#FFE5B0"/>
<path opacity="0.4" d="M6875.91 1322.7L6450.02 1753.61C6450.02 1753.61 6472.37 1756.21 6498.17 1756.08L6879.49 1371.97C6879.49 1371.97 6883.84 1350.66 6875.91 1322.7Z" fill="#FFE5B0"/>
<path d="M6694.04 1291.13L6686.8 1296.66L6599.35 1244.82C6609.52 1266.18 6612.92 1268.02 6607.11 1298.6L6669.69 1329.21L6646.61 1381.66L6639.37 1387.19L6584.63 1351.35C6550.26 1407.05 6499.86 1425.41 6425.25 1391.82C6447.3 1460.18 6472.85 1531.57 6492.16 1614.28L6426.47 1582.15C6408.12 1506.34 6385.24 1446.91 6359.38 1363.13L6374.94 1322.06L6382.18 1316.53L6413.73 1331.96C6475.7 1362.27 6516.54 1366.42 6539.92 1328.8L6409.06 1264.79L6425.67 1221.23L6432.91 1215.7L6562.04 1278.86C6570.3 1241.61 6543.33 1216.79 6493.41 1192.37L6449.35 1170.71L6468.28 1132.09L6481.95 1128.42L6717.14 1244.75L6694.03 1291.12L6694.04 1291.13Z" fill="#FFE5B0"/>
<path d="M6686.8 1296.65L6592.11 1250.34C6602.28 1271.7 6605.68 1273.54 6599.87 1304.12L6662.45 1334.73L6639.37 1387.18L6577.4 1356.87C6543.03 1412.57 6492.63 1430.93 6418.02 1397.34C6440.07 1465.7 6465.62 1537.09 6484.93 1619.8L6419.24 1587.67C6400.89 1511.86 6378.01 1452.43 6352.15 1368.65L6374.94 1322.05L6406.49 1337.48C6468.46 1367.79 6509.3 1371.94 6532.68 1334.32L6401.82 1270.31L6425.67 1221.22L6554.8 1284.38C6563.06 1247.13 6536.09 1222.31 6486.17 1197.89L6445.42 1177.96L6468.29 1132.09L6709.92 1250.27L6686.81 1296.64L6686.8 1296.65Z" fill="#FFCA54"/>
<path fill-rule="evenodd" clip-rule="evenodd" d="M4924.5 2209.29L5027.17 2211.54L4963.77 2292.33L4961.52 2395L4880.73 2331.6L4778.06 2329.35L4841.46 2248.56L4843.71 2145.89L4924.5 2209.29Z" fill="#FFCA54"/>
<path fill-rule="evenodd" clip-rule="evenodd" d="M7664.2 627.286L7727.31 550.406L7750.95 647.026L7827.83 710.136L7731.21 733.776L7668.1 810.656L7644.46 714.036L7567.58 650.926L7664.2 627.286Z" fill="#FFCA54"/>
<mask id="mask0_1199_355" style="mask-type:luminance" maskUnits="userSpaceOnUse" x="0" y="0" width="12442" height="3241">
<path d="M12441.6 0.382812H0V3240.31H12441.6V0.382812Z" fill="white"/>
</mask>
<g mask="url(#mask0_1199_355)">
<path d="M7709.96 2307.27C7702.67 2307.9 7695.46 2308.73 7688.25 2309.55C7682.23 2302.71 7676.07 2296.01 7669.89 2289.33C7653.77 2271.87 7637.33 2254.71 7620.28 2238.16C7623.18 2238.48 7625.78 2238.74 7628.83 2239.07C7671.32 2243.59 7724.5 2272.32 7746.67 2289.3C7747.68 2294.51 7748.69 2299.72 7749.74 2304.93C7749.92 2305.8 7750.09 2306.67 7750.27 2307.54C7739.72 2305.16 7727.2 2305.76 7709.96 2307.26V2307.27Z" fill="#182B53"/>
<path d="M7799.43 2491.91C7797.73 2489.84 7796.09 2487.76 7794.43 2485.69C7798.56 2473.76 7799.81 2466.31 7799.81 2466.31V2466.29C7776.04 2408.44 7735.01 2362.88 7694.55 2316.46C7692.52 2314.1 7690.31 2311.88 7688.26 2309.55C7695.47 2308.73 7702.67 2307.9 7709.97 2307.27C7727.22 2305.78 7739.74 2305.17 7750.28 2307.55C7764.71 2310.82 7775.32 2319.91 7788.18 2341.79C7821.46 2398.27 7851.09 2457.01 7876.06 2517.7C7862.12 2511.49 7848.26 2505.12 7834.44 2498.53C7817.69 2490.5 7811.41 2487.26 7799.44 2491.92L7799.43 2491.91Z" fill="#7785AF"/>
<path d="M7628.84 2239.07C7625.79 2238.74 7623.19 2238.48 7620.29 2238.16C7594.34 2212.95 7567.37 2188.78 7539.66 2165.56C7526.84 2154.84 7516.84 2148.96 7507.33 2146.63C7507.44 2145.81 7507.57 2144.89 7507.67 2144.1C7509.98 2128.44 7511.9 2116.21 7512.56 2112.79C7521.42 2066.28 7531.54 2019.91 7544.49 1974.33C7552.63 1945.67 7561.85 1917.21 7572.56 1889.41C7581.92 1865.18 7589.77 1833.7 7617.61 1824.92C7623.23 1823.15 7629.53 1822.47 7636.49 1823.14C7676.56 1827.1 7711.23 1861.57 7734.03 1892.82C7784.48 1961.85 7791.23 2060.58 7784.93 2143.51C7782.7 2172.58 7778.15 2201.48 7771.25 2229.81C7769.88 2235.4 7759.09 2286.63 7755.47 2297.18C7755.47 2297.18 7755.13 2300.88 7749.76 2304.93C7748.71 2299.71 7747.7 2294.51 7746.69 2289.3C7724.52 2272.32 7671.34 2243.59 7628.85 2239.07H7628.84Z" fill="#7785AF"/>
<path d="M7649.55 2611.77C7630.97 2612.5 7623.91 2612.55 7615.47 2622.27C7613.03 2621.2 7610.62 2620.14 7608.15 2619.08C7606.25 2606.6 7603.86 2599.43 7603.86 2599.43H7603.83C7599.05 2595.4 7594.08 2591.72 7589.09 2588.07C7588.09 2587.37 7587.17 2586.54 7586.17 2585.83C7636.83 2527.76 7706.2 2485.82 7781.53 2469.78C7785.87 2475.06 7790.16 2480.37 7794.42 2485.69C7796.09 2487.76 7797.72 2489.84 7799.42 2491.91C7795.91 2493.26 7792.01 2495.19 7787.14 2497.97C7771.96 2506.66 7757.74 2517.7 7744.62 2529.27C7718.56 2552.22 7696.53 2579.7 7679.89 2610.19C7669.77 2610.79 7659.68 2611.39 7649.54 2611.78L7649.55 2611.77Z" fill="#182B53"/>
<path d="M7454.39 2159.24C7439.39 2166.09 7424.81 2173.38 7410.54 2181.15C7390.22 2192.19 7370.64 2204.36 7352.05 2218.93C7344.05 2225.22 7331.98 2234.27 7319.58 2244.8C7299.15 2262.16 7277.36 2281.65 7273.19 2305.08C7272.42 2301.25 7271.7 2297.32 7271.04 2293.26C7265.19 2257.55 7253.62 2223.38 7249.48 2187.1C7248.92 2182.55 7248.53 2177.92 7248.24 2173.26C7247.82 2166.99 7247.74 2160.66 7248.08 2154.42C7273.1 2142.2 7302.76 2134.62 7355.16 2122.11C7396.68 2112.16 7456.41 2121.44 7482.97 2130.03C7485.68 2134.59 7488.39 2139.15 7491.1 2143.72C7491.58 2144.48 7492.02 2145.24 7492.46 2146.01C7481.73 2147.29 7470.15 2152.06 7454.4 2159.23L7454.39 2159.24Z" fill="#182B53"/>
<path d="M8007.65 2594.38C8003.19 2594.11 7998.71 2593.8 7994.27 2593.61C7888.42 2589.01 7784.88 2604.13 7679.9 2610.19C7696.54 2579.7 7718.57 2552.22 7744.63 2529.27C7757.75 2517.7 7771.97 2506.66 7787.15 2497.97C7792.02 2495.19 7795.91 2493.26 7799.43 2491.91C7811.41 2487.25 7817.69 2490.49 7834.43 2498.52C7848.24 2505.11 7862.1 2511.49 7876.05 2517.69C7937.28 2544.98 7999.45 2569.36 8060.08 2597.72C8059.01 2598.66 8058.04 2599.6 8057.03 2600.52C8040.82 2597.13 8024.24 2595.38 8007.64 2594.37L8007.65 2594.38Z" fill="#95A0BB"/>
<path d="M7319.58 2244.81C7331.98 2234.28 7344.05 2225.23 7352.05 2218.94C7370.64 2204.36 7390.22 2192.2 7410.54 2181.16C7457.37 2193.26 7505.82 2204.71 7548.75 2223.8C7591.2 2242.65 7631.8 2263.39 7669.89 2289.33C7676.07 2296.01 7682.23 2302.71 7688.25 2309.55C7690.3 2311.88 7692.51 2314.1 7694.54 2316.46C7735 2362.88 7776.03 2408.43 7799.78 2466.29V2466.31C7799.78 2466.31 7798.55 2473.76 7794.42 2485.69C7790.16 2480.37 7785.88 2475.06 7781.53 2469.78C7706.2 2485.82 7636.83 2527.76 7586.17 2585.83C7542.05 2554.28 7491.44 2535.5 7440.9 2515.94C7418.86 2507.37 7396.48 2499.72 7373.96 2492.45C7365.15 2477.86 7356.65 2463.35 7348.35 2449.26C7326.29 2412.09 7300.28 2375.36 7279.36 2338.31C7272.55 2326.32 7271.34 2315.37 7273.18 2305.09C7277.36 2281.67 7299.15 2262.17 7319.57 2244.81H7319.58Z" fill="#95A0BA"/>
<path d="M7539.66 2165.57C7567.36 2188.79 7594.33 2212.96 7620.29 2238.17C7637.34 2254.71 7653.78 2271.87 7669.9 2289.34C7631.81 2263.4 7591.21 2242.66 7548.76 2223.81C7505.83 2204.72 7457.37 2193.27 7410.55 2181.17C7424.82 2173.4 7439.4 2166.1 7454.4 2159.26C7470.16 2152.09 7481.73 2147.32 7492.46 2146.04C7497.5 2145.42 7502.37 2145.46 7507.33 2146.65C7516.85 2148.98 7526.85 2154.85 7539.66 2165.58V2165.57Z" fill="#BBC1CD"/>
<path d="M7355.15 2122.12C7302.75 2134.64 7273.09 2142.21 7248.07 2154.43C7247.73 2160.67 7247.81 2167 7248.23 2173.27C7237.24 2167.88 7231.75 2163.36 7231.75 2163.36C7228.75 2159.57 7216.41 2109.78 7209.16 2073.2C7206.09 2057.67 7203.8 2045.52 7203.26 2042.07C7196.05 1995.28 7190.08 1948.17 7187.01 1900.91C7185.11 1871.16 7184.27 1841.26 7185.08 1811.46C7185.63 1791.1 7184 1766.96 7194.42 1748.96C7199.6 1755.29 7206.54 1759.99 7213.39 1764.55C7325.47 1839.68 7417.79 1943.92 7478.85 2064.22C7481.53 2069.44 7484.34 2074.75 7487.92 2079.34C7490.17 2097.15 7493.83 2126.41 7493.91 2134.51C7493.91 2134.51 7494.81 2138.13 7491.11 2143.73C7488.4 2139.16 7485.69 2134.6 7482.98 2130.04C7456.42 2121.44 7396.69 2112.17 7355.17 2122.12H7355.15Z" fill="#95A0BA"/>
<path d="M7478.84 2064.23C7417.78 1943.93 7325.46 1839.69 7213.38 1764.56C7206.53 1760 7199.6 1755.3 7194.41 1748.97C7197.29 1744 7200.89 1739.42 7205.9 1735.63C7210.62 1732.08 7216.33 1729.33 7223.1 1727.63C7262.17 1717.96 7306.4 1738.84 7338.36 1760.64C7409.01 1808.81 7448.39 1899.59 7470.21 1979.83C7477.86 2007.97 7483.21 2036.75 7486.24 2065.72C7486.38 2067.3 7487.05 2072.56 7487.9 2079.34C7484.32 2074.75 7481.51 2069.44 7478.83 2064.22L7478.84 2064.23Z" fill="#BBC1CD"/>
<path d="M7607.45 2633.35C7603.04 2640.29 7599.11 2647.66 7595.49 2655.15C7591.39 2663.59 7587.72 2672.19 7584.42 2680.84C7582.13 2686.85 7580.27 2692.98 7578.39 2699.11C7558.27 2697.26 7538.2 2695.01 7518.15 2692.45C7537.57 2661.92 7561.47 2634.29 7589.21 2611.14C7595.56 2613.78 7601.9 2616.35 7608.15 2619.08C7610.62 2620.13 7613.02 2621.2 7615.47 2622.27C7613 2625.11 7610.47 2628.62 7607.45 2633.36V2633.35Z" fill="#1C427A"/>
<path d="M7101.6 2570.94C7075.27 2554.88 7049.79 2537.38 7024.44 2519.51C7022.25 2517.97 7020.03 2516.36 7017.83 2514.79C7021 2511.06 7024.08 2507.42 7027.52 2503.36C7055.17 2470.81 7108.86 2443.05 7135.38 2434.29C7140.26 2436.36 7145.13 2438.46 7150.04 2440.52C7162.34 2445.71 7174.59 2451.04 7186.49 2456.88C7175.94 2462.69 7167.23 2473.21 7155.16 2488.82C7134.92 2515.04 7116.65 2541.74 7101.6 2570.93V2570.94Z" fill="#1C427A"/>
<path d="M7578.39 2699.12C7576.24 2706.07 7574.39 2713.09 7572.74 2720.19C7560 2717.14 7546.77 2715.42 7533.83 2714.78C7524.55 2714.3 7515.24 2713.78 7505.88 2713.29C7509.75 2706.2 7513.83 2699.25 7518.15 2692.46C7538.19 2695.02 7558.27 2697.27 7578.39 2699.12Z" fill="#182B53"/>
<path d="M7075.77 2627.41C7067.47 2648.14 7058.77 2670.72 7060.29 2690.77C7034.57 2665.59 7005.23 2644.89 6980.6 2618.19C6973.28 2610.28 6966.09 2601.76 6960.16 2592.65C6971.86 2570.45 6989.03 2548.82 7017.82 2514.79C7020.02 2516.36 7022.25 2517.96 7024.43 2519.51C7049.77 2537.37 7075.26 2554.87 7101.59 2570.94C7101.08 2571.95 7100.56 2573.01 7100.08 2574.01C7097.48 2579.12 7094.78 2584.13 7092.42 2589.39C7088.28 2598.7 7081.83 2612.31 7075.77 2627.41Z" fill="#182B53"/>
<path d="M7623.7 2691.75C7599.73 2693.01 7594.98 2692.68 7581.88 2713.9C7580.39 2716.3 7579.27 2718.94 7577.87 2721.42C7576.18 2720.96 7574.47 2720.59 7572.74 2720.19C7574.39 2713.09 7576.24 2706.07 7578.39 2699.12C7580.28 2692.99 7582.13 2686.86 7584.42 2680.85C7587.72 2672.2 7591.39 2663.6 7595.49 2655.16C7595.61 2655.17 7595.71 2655.21 7595.81 2655.25C7610.25 2658.43 7626.69 2657.05 7642.73 2655.51C7764.1 2643.77 7886.34 2623.04 8007.65 2594.38C8024.25 2595.39 8040.83 2597.14 8057.04 2600.53C8034.43 2621.31 8014.32 2644.37 8001.88 2671.12C7990.67 2670.1 7979.41 2669.4 7968.18 2669.06C7852.07 2665.54 7739.05 2685.83 7623.71 2691.75H7623.7Z" fill="#BBC1CD"/>
<path d="M7075.77 2627.41C7081.83 2612.31 7088.28 2598.7 7092.42 2589.39C7094.78 2584.13 7097.48 2579.12 7100.08 2574.01C7113.93 2565.03 7128.28 2556.96 7143.66 2551.07C7173.37 2539.68 7202.29 2542.72 7232.86 2540.9C7267.74 2538.81 7303.06 2540.46 7337.86 2543.61C7409.49 2550.11 7480.29 2565.66 7547.95 2589.95C7556.52 2593.01 7565.4 2596.27 7574.46 2595.4C7580.01 2594.87 7585.4 2592.1 7589.09 2588.08C7594.07 2591.73 7599.04 2595.42 7603.83 2599.45H7603.86C7603.86 2599.45 7606.24 2606.61 7608.15 2619.09C7601.89 2616.36 7595.55 2613.79 7589.21 2611.15C7561.47 2634.3 7537.57 2661.93 7518.15 2692.46C7513.83 2699.25 7509.75 2706.19 7505.88 2713.29C7502.05 2713.08 7498.26 2712.86 7494.44 2712.66C7488.25 2701.66 7483.48 2695.81 7483.48 2695.81C7424.47 2675.18 7363.14 2675.63 7301.58 2675.05C7229.39 2674.32 7157.21 2680.16 7085.89 2690.79C7075.68 2692.31 7067.71 2694.28 7061.06 2696.88C7060.69 2694.87 7060.45 2692.83 7060.3 2690.77C7058.79 2670.71 7067.48 2648.14 7075.78 2627.41H7075.77Z" fill="#BBC1CD"/>
<path d="M7027.52 2503.36C7024.08 2507.42 7020.99 2511.05 7017.83 2514.79C6989.04 2548.82 6971.87 2570.45 6960.17 2592.65C6963.59 2597.88 6967.38 2602.92 6971.44 2607.75C6959.43 2609.88 6952.31 2609.49 6952.28 2609.49C6947.63 2608.2 6908.27 2575.29 6880.82 2550.05C6869.19 2539.33 6860.16 2530.87 6857.68 2528.4C6824.24 2494.91 6791.59 2460.43 6761.24 2424.07C6742.14 2401.19 6723.82 2377.55 6706.87 2353.03C6692.48 2332.18 6671.78 2308.63 6678.57 2281.54C6759.16 2277.38 6840.56 2281.54 6918.86 2300.93C6985.38 2317.38 7049.5 2345.34 7104.79 2385.53C7115.64 2397.07 7141.32 2424.02 7146.85 2431.44C7146.85 2431.44 7149.71 2433.82 7150.04 2440.54C7145.13 2438.48 7140.26 2436.37 7135.38 2434.31C7108.86 2443.07 7055.18 2470.82 7027.52 2503.38V2503.36Z" fill="#BBC1CD"/>
<path d="M6678.56 2281.54C6678.73 2280.86 6678.71 2280.19 6678.91 2279.5C6680.62 2273.86 6683.62 2268.25 6688.09 2262.88C6713.91 2232.01 6761.91 2222.78 6800.58 2221.5C6886.04 2218.69 6971.43 2268.69 7036.43 2320.58C7059.18 2338.78 7080.5 2358.83 7100.07 2380.46C7100.72 2381.19 7102.54 2383.16 7104.8 2385.53C7049.5 2345.34 6985.38 2317.38 6918.87 2300.93C6840.57 2281.54 6759.17 2277.38 6678.58 2281.54H6678.56Z" fill="#E4EEDE"/>
<path d="M7586.18 2585.83C7587.18 2586.54 7588.1 2587.37 7589.1 2588.07C7585.41 2592.09 7580.01 2594.86 7574.47 2595.39C7565.41 2596.26 7556.53 2593 7547.96 2589.94C7480.3 2565.65 7409.51 2550.11 7337.87 2543.6C7303.08 2540.45 7267.75 2538.8 7232.87 2540.89C7202.3 2542.71 7173.38 2539.67 7143.67 2551.06C7128.29 2556.95 7113.94 2565.02 7100.09 2574C7100.57 2573 7101.09 2571.94 7101.6 2570.93C7116.66 2541.75 7134.92 2515.04 7155.16 2488.82C7167.22 2473.21 7175.94 2462.69 7186.49 2456.88C7197.85 2450.64 7211.3 2449.88 7233.5 2454.7C7280.91 2464.89 7327.82 2477.48 7373.96 2492.43C7396.48 2499.71 7418.86 2507.35 7440.9 2515.92C7491.44 2535.48 7542.05 2554.26 7586.17 2585.81L7586.18 2585.83Z" fill="#E4EEDE"/>
<path d="M7642.72 2655.51C7626.69 2657.05 7610.25 2658.43 7595.8 2655.25C7595.7 2655.21 7595.6 2655.17 7595.48 2655.16C7599.1 2647.67 7603.02 2640.3 7607.44 2633.36C7610.46 2628.63 7612.99 2625.11 7615.46 2622.27C7623.9 2612.55 7630.96 2612.5 7649.54 2611.77C7659.68 2611.38 7669.77 2610.78 7679.89 2610.18C7784.87 2604.13 7888.41 2589 7994.26 2593.6C7998.7 2593.79 8003.18 2594.1 8007.64 2594.37C7886.33 2623.02 7764.09 2643.75 7642.72 2655.5V2655.51Z" fill="#E4EEDE"/>
<path d="M7572.74 2720.18C7574.47 2720.58 7576.18 2720.95 7577.87 2721.41C7570.68 2734.3 7564.51 2747.93 7559.48 2761.67C7547.39 2794.77 7541.08 2829.99 7541.23 2865.22C7541.27 2872.83 7541.92 2882.43 7543.16 2893.13C7539.44 2893.09 7535.74 2892.97 7532.01 2892.97C7498.31 2892.86 7464.73 2896.18 7431.06 2897.19C7430.15 2897.21 7429.23 2897.22 7428.32 2897.24C7426.8 2832.74 7442.18 2767.8 7473.96 2711.75C7480.78 2712.02 7487.59 2712.32 7494.44 2712.64C7498.26 2712.84 7502.05 2713.06 7505.88 2713.27C7515.24 2713.76 7524.55 2714.28 7533.83 2714.76C7546.76 2715.41 7560 2717.12 7572.74 2720.17V2720.18Z" fill="#1C427A"/>
<path d="M7001.5 2864.29C6982.97 2859.67 6964.57 2854.48 6946.37 2848.5C6931.43 2843.58 6916.47 2838.47 6901.58 2833.16C6904.24 2825.6 6907.09 2817.64 6910.22 2808.89C6911.96 2804.06 6914.15 2799.17 6916.55 2794.27C6916.87 2793.61 6917.16 2792.95 6917.51 2792.27C6919.85 2787.63 6922.49 2782.99 6925.26 2778.39C6925.79 2777.52 6926.33 2776.67 6926.84 2775.83C6929.71 2771.26 6932.69 2766.75 6935.87 2762.34C6936.36 2761.65 6936.86 2760.97 6937.35 2760.27C6940.66 2755.7 6944.08 2751.19 6947.56 2746.89C6947.62 2746.81 6947.68 2746.73 6947.77 2746.63C6951.37 2742.18 6955 2737.94 6958.58 2733.92C6958.86 2733.6 6959.11 2733.3 6959.37 2733C6962.9 2729.08 6966.38 2725.42 6969.69 2722.04C6970.08 2721.65 6970.46 2721.27 6970.82 2720.9C6974.14 2717.58 6977.33 2714.53 6980.31 2711.85C6980.54 2711.63 6980.78 2711.42 6981.02 2711.22C6983.18 2709.29 6985.07 2707.77 6986.96 2706.25C6992.23 2706.47 6997.46 2706.73 7002.76 2706.92C7016.1 2707.44 7029.45 2708.11 7042.66 2709.38C7034.83 2718.53 7030.38 2731.44 7024.56 2750.33C7013.07 2787.86 7004.14 2824.99 7001.51 2864.27L7001.5 2864.29Z" fill="#1C427A"/>
<path d="M7428.32 2897.26C7429.23 2897.24 7430.15 2897.23 7431.06 2897.21C7464.72 2896.2 7498.31 2892.88 7532.01 2892.99C7535.74 2892.99 7539.44 2893.11 7543.16 2893.15C7543.34 2894.67 7543.59 2896.32 7543.79 2897.88C7547.58 2927.24 7555.77 2963.96 7569.31 2994.14C7574.49 3005.72 7580.54 3016.2 7587.34 3024.99C7548.32 3021.87 7509.31 3018.77 7470.32 3015.65C7463.78 3015.13 7457.24 3014.6 7450.74 3014.07C7436.6 2976.81 7429.26 2937.13 7428.32 2897.27V2897.26Z" fill="#182B53"/>
<path d="M6878.67 2916.18C6881.51 2893.34 6888.82 2869.43 6901.58 2833.17C6916.47 2838.48 6931.43 2843.59 6946.37 2848.51C6964.57 2854.49 6982.97 2859.68 7001.5 2864.3C7001.46 2865.06 7001.33 2865.79 7001.28 2866.54C7001.08 2870.06 7000.8 2874.32 7000.49 2878.86C6999.91 2887.43 6999.33 2897.36 6999.09 2908.01C6998.6 2930.36 6998.42 2954.55 7006.9 2972.8C6986.39 2963.72 6965.2 2956.68 6944.24 2948.82C6931.6 2944.05 6918.98 2939.06 6906.77 2932.91C6902.67 2930.86 6898.57 2928.67 6894.51 2926.37C6894.35 2926.28 6894.21 2926.19 6894.05 2926.11C6888.72 2923.08 6883.55 2919.79 6878.67 2916.18Z" fill="#182B53"/>
<path d="M7761.03 2896.15C7691.06 2896.67 7621 2896.4 7551.03 2897.74C7548.64 2897.75 7546.22 2897.79 7543.79 2897.87C7543.59 2896.31 7543.33 2894.66 7543.16 2893.14C7541.93 2882.44 7541.27 2872.84 7541.23 2865.23C7541.08 2830 7547.39 2794.77 7559.48 2761.68C7564.51 2747.94 7570.68 2734.31 7577.87 2721.42C7579.27 2718.94 7580.39 2716.3 7581.88 2713.9C7594.98 2692.69 7599.73 2693.02 7623.7 2691.75C7739.04 2685.83 7852.06 2665.54 7968.17 2669.06C7979.4 2669.4 7990.66 2670.1 8001.87 2671.12C7993.95 2688.16 7989.12 2706.64 7988.86 2726.98C7988.4 2765.3 7991.49 2803.62 7998.02 2841.37C8001.02 2858.67 8004.8 2875.84 8009.26 2892.82C7989.02 2893.56 7968.85 2894.57 7949.36 2894.73C7886.6 2895.19 7823.81 2895.67 7761.02 2896.14L7761.03 2896.15Z" fill="#E4EEDE"/>
<path d="M7569.32 2994.13C7555.77 2963.95 7547.59 2927.23 7543.8 2897.87C7546.23 2897.79 7548.64 2897.75 7551.04 2897.74C7621.01 2896.39 7691.07 2896.67 7761.04 2896.15C7823.83 2895.68 7886.62 2895.2 7949.38 2894.74C7968.87 2894.59 7989.04 2893.57 8009.28 2892.83C8014.48 2912.76 8020.58 2932.46 8027.75 2951.75C8039.44 2983.28 8054.48 3014.94 8080.31 3036.47C8097.11 3050.48 8115.11 3057.09 8133.63 3058.98C8108.67 3070.47 8079.53 3067.42 8052.72 3063.34C8012.91 3057.25 7969.27 3064.05 7928.89 3064.5C7852.98 3065.38 7777.07 3063.15 7701.38 3057.79C7675.31 3055.93 7646.39 3055.32 7620.92 3049.29C7608 3046.24 7596.9 3037.31 7587.35 3024.97C7580.55 3016.18 7574.51 3005.7 7569.32 2994.12V2994.13Z" fill="#BBC1CD"/>
<path d="M7085.88 2690.79C7157.2 2680.15 7229.38 2674.32 7301.57 2675.05C7363.13 2675.62 7424.46 2675.17 7483.47 2695.81C7483.47 2695.81 7433.62 2690.29 7411.31 2849.88C7409.25 2864.76 7408.69 2880.22 7408.83 2895.77C7365.18 2904.08 7320.92 2909.25 7276.52 2910.99C7183.59 2914.62 7090.08 2903.82 7000.49 2878.85C7000.79 2874.32 7001.08 2870.05 7001.28 2866.53C7001.33 2865.78 7001.46 2865.05 7001.5 2864.29C7004.13 2825.02 7013.06 2787.88 7024.55 2750.35C7030.38 2731.45 7034.82 2718.55 7042.65 2709.4C7047.24 2704.04 7053.1 2699.95 7061.05 2696.88C7067.7 2694.29 7075.67 2692.31 7085.88 2690.79Z" fill="#E4EEDE"/>
<path d="M6999.09 2908C6999.33 2897.35 6999.91 2887.42 7000.49 2878.85C7090.08 2903.82 7183.59 2914.62 7276.52 2910.99C7320.92 2909.25 7365.17 2904.07 7408.83 2895.77C7409.06 2924.11 7412.45 2952.82 7418.94 2979.45C7426.18 3008.94 7444.11 3035.38 7458.13 3032.1C7367.99 3061.96 7262.39 3040.05 7171.1 3022.17C7128.65 3014 7083.92 3009.08 7042.32 3000.14C7023.73 2996.18 7013.05 2986.04 7006.9 2972.8C6998.42 2954.55 6998.61 2930.36 6999.09 2908.01V2908Z" fill="#BBC1CD"/>
<path d="M6940.13 2737.55V2737.68C6914.09 2763.19 6897.93 2794.02 6887.97 2823.67C6872.78 2818.43 6857.6 2813.18 6842.38 2807.95C6777.29 2785.46 6713.08 2759.9 6647.61 2738.52C6612.99 2727.21 6579.45 2712.56 6547.59 2694.9C6538.67 2689.92 6529.88 2684.68 6521.2 2679.26C6540.09 2654.31 6571.03 2636.44 6598.55 2625.04C6677.53 2592.31 6775.05 2609.03 6854.18 2634.69C6881.89 2643.71 6908.9 2654.97 6934.8 2668.34C6939.91 2671.01 6987.17 2693.54 6996.56 2699.55C6996.56 2699.55 6983.77 2692.47 6940.13 2737.56V2737.55Z" fill="#E4EEDE"/>
<path d="M7418.94 2979.45C7412.46 2952.82 7409.07 2924.1 7408.83 2895.77C7408.7 2880.22 7409.25 2864.76 7411.31 2849.88C7433.63 2690.29 7483.47 2695.82 7483.47 2695.82C7483.47 2695.82 7488.24 2701.66 7494.43 2712.66C7487.58 2712.35 7480.78 2712.05 7473.95 2711.77C7442.17 2767.82 7426.79 2832.76 7428.31 2897.26C7429.26 2937.12 7436.6 2976.8 7450.73 3014.06C7457.23 3014.59 7463.77 3015.11 7470.31 3015.64C7463.12 3026.64 7458.14 3032.08 7458.11 3032.1C7444.09 3035.38 7426.16 3008.95 7418.92 2979.45H7418.94Z" fill="#95A0BA"/>
<path d="M10188.7 1547.36C10195.5 1553.43 10202.5 1559.44 10209.5 1565.46C10211.9 1573.08 10216.1 1580.2 10220.2 1587.11C10265.4 1662.53 10310.6 1737.95 10355.8 1813.36C10363.5 1826.29 10371.5 1839.64 10373.9 1854.54C10378.6 1883.31 10359.9 1893.34 10339.8 1907.31C10230.5 1982.99 10110.5 1880.18 10047.9 1787.96C10023.6 1739.2 9994.75 1691.81 9960.9 1646.21C9944.26 1623.83 9926.66 1602.06 9908.23 1580.89C9895.77 1552.2 9880.9 1526.53 9863.18 1505.86C9952.7 1493.02 10042.7 1480.54 10133 1468.98C10138.5 1500.81 10164.3 1525.58 10188.7 1547.36Z" fill="#1C427A"/>
<path d="M10449.9 2137.47C10345.8 2144.37 10243 2139.56 10140.2 2135.34C10136.4 2067.5 10125.2 2001 10106.4 1936.43C10091.6 1885.66 10072 1836.12 10047.9 1787.96C10110.5 1880.17 10230.5 1982.99 10339.8 1907.31C10359.9 1893.34 10378.6 1883.31 10373.9 1854.54C10371.5 1839.64 10363.5 1826.29 10355.8 1813.36C10310.6 1737.94 10265.4 1662.53 10220.2 1587.11C10216.1 1580.2 10211.9 1573.08 10209.5 1565.46C10289.8 1634.35 10379.9 1700.82 10424.5 1797.98C10447.8 1848.89 10501.2 1982.3 10548.1 2133.71C10515.4 2133.11 10482.2 2135.33 10449.9 2137.48V2137.47Z" fill="#1B3765"/>
<path d="M10449.9 2137.47C10482.2 2135.33 10515.4 2133.1 10548.1 2133.7C10578.8 2232.53 10606.7 2338.98 10621.9 2435.25C10592.4 2426.82 10563.1 2418.67 10533.6 2410.81C10465.5 2392.64 10396.2 2376.25 10320.5 2363.83C10257.2 2353.45 10194.3 2341.68 10131.4 2329.24C10140.9 2263.68 10143.8 2198.92 10140.2 2135.35C10243 2139.56 10345.8 2144.38 10449.9 2137.48L10449.9 2137.47Z" fill="#182B53"/>
<path d="M9281.56 1779.7C9319.85 1848.54 9338.16 1928.93 9329.69 2007.5C9319.42 2103.07 9269.77 2192.54 9197.68 2255.89C9158.93 2289.96 9113.76 2316.62 9064.5 2332.32C8964.52 2364.22 8857.46 2375.69 8754.72 2350.73C8678.61 2332.24 8603.13 2259.37 8524.23 2283.8C8497.31 2292.15 8473.95 2308.96 8451.37 2325.85C8341.06 2408.46 8237.39 2499.49 8133.85 2590.42C8095.46 2624.13 8056.08 2659.13 8034.01 2705.2C8005.22 2765.32 8017.52 2826.6 8045.64 2884C8050.08 2892.98 8054.98 2901.87 8060.06 2910.68C8088.9 2960.43 8126.95 3006.54 8156.76 3045.4C8159.88 3049.5 8163.18 3053.59 8166.56 3057.61C8155.46 3059.54 8144.43 3060.1 8133.6 3058.98C8115.08 3057.09 8097.08 3050.47 8080.28 3036.47C8054.45 3014.94 8039.42 2983.27 8027.72 2951.75C8020.55 2932.45 8014.45 2912.75 8009.25 2892.83C8004.78 2875.85 8001.01 2858.68 7998.01 2841.38C7991.47 2803.63 7988.38 2765.31 7988.85 2726.99C7989.11 2706.64 7993.95 2688.17 8001.86 2671.13C8014.3 2644.38 8034.41 2621.32 8057.02 2600.54C8058.03 2599.62 8059 2598.68 8060.07 2597.74C8077.97 2581.59 8097.22 2566.84 8115.23 2552.87C8185.5 2498.43 8257.68 2441.5 8322.86 2380.19C8349.14 2355.47 8372.2 2322.96 8400.42 2300.87C8424.74 2281.81 8454.31 2268.66 8478.68 2248.64C8519.19 2215.37 8557.4 2179.61 8594.18 2142.33C8641.35 2200.11 8691.34 2260.73 8750.6 2302.05C8819.8 2350.27 8930.68 2326.5 9003.54 2302.52C9064.91 2282.31 9122.05 2248.63 9167.83 2202.89C9210.18 2160.58 9242.23 2107.86 9260.64 2050.98C9207.11 2113.97 9135.37 2161.39 9056.23 2185.38C8955.04 2216.06 8844.21 2210.29 8752.82 2157.8C8657.22 2102.89 8569.85 2034.99 8483.39 1966.95C8430.21 1925.13 8376.19 1882.91 8310.3 1863.69C8257.62 1848.26 8207.5 1801.65 8161.02 1768.7C8155.78 1732.72 8148.79 1677.09 8154.08 1624.76C8156.36 1620.55 8158.58 1616.25 8160.54 1611.83C8160.1 1643.63 8159.95 1676.78 8173.81 1705.41C8187.68 1734.04 8220.25 1756.3 8250.83 1747.59C8270.75 1741.93 8285.28 1725.07 8303.4 1715.06C8302.64 1717.08 8301.91 1718.99 8301.19 1720.85C8296 1734.51 8292.9 1743.01 8292.9 1743.01C8285.49 1767.53 8305 1808.7 8326.28 1823.79C8396.42 1873.63 8471.59 1916.4 8550.23 1951.37C8630.32 1987 8746.56 2045.54 8835.94 2014.82C8870.3 2003.06 8909.83 1964.46 8942.6 1915.47C8942.31 1918.01 8942.09 1920.55 8941.49 1923.02C8936.59 1943.64 8925.45 1962.25 8910.6 1976.95C8895.14 1992.21 8879.17 2008.08 8871.86 2028.5C8858.42 2066.04 8888.17 2091.29 8913.09 2114.19C8940.46 2139.35 8973.36 2138.18 9010.6 2132.55C9090.89 2120.43 9160.05 2068.7 9204.15 2001.87C9241.69 1944.98 9257.85 1873.56 9248.88 1806.49C9232.22 1769.45 9209.05 1735.35 9180.16 1706.89C9138.88 1666.12 9100.85 1659.47 9052.33 1656.04C9055.35 1653.54 9058.25 1650.92 9061.29 1648.45C9074.82 1637.48 9090.76 1625.88 9108.59 1614.05C9112.17 1618.29 9116.86 1621.83 9121.52 1624.96C9186.97 1669.21 9241.58 1707.89 9281.54 1779.69L9281.56 1779.7Z" fill="#1B3765"/>
<path d="M8250.85 1747.58C8220.27 1756.29 8187.7 1734.03 8173.83 1705.4C8159.96 1676.77 8160.12 1643.63 8160.56 1611.82C8158.6 1616.24 8156.37 1620.53 8154.1 1624.75C8155.55 1610.3 8157.83 1596.07 8161.45 1582.61C8162.63 1578.29 8165.46 1568.25 8167.91 1558.88C8173.58 1557.32 8179.26 1555.77 8184.94 1554.2C8241.83 1538.47 8298.76 1523.15 8358.1 1518.59C8372.42 1517.49 8386.04 1517.3 8399.39 1517.48C8367.27 1554.7 8323.28 1663.36 8303.44 1715.04C8285.32 1725.05 8270.79 1741.91 8250.87 1747.57L8250.85 1747.58Z" fill="#1C427A"/>
<path d="M9180.18 1706.89C9209.06 1735.35 9232.23 1769.45 9248.9 1806.49C9257.87 1873.56 9241.71 1944.97 9204.17 2001.87C9160.07 2068.69 9090.91 2120.42 9010.62 2132.55C8973.38 2138.18 8940.48 2139.35 8913.11 2114.19C8888.19 2091.28 8858.44 2066.03 8871.88 2028.5C8879.19 2008.08 8895.16 1992.21 8910.62 1976.95C8925.47 1962.25 8936.62 1943.64 8941.51 1923.02C8942.11 1920.55 8942.32 1918.01 8942.62 1915.47C8999.37 1830.61 9035.75 1714.41 8989.5 1651.01C8996.45 1651.96 9003.41 1652.86 9010.3 1653.36C9025.27 1654.43 9039.2 1655.13 9052.35 1656.06C9100.88 1659.48 9138.9 1666.14 9180.18 1706.91V1706.89Z" fill="#1C427A"/>
<path d="M7671.15 1771.52C7667.72 1765.15 7664.68 1758.72 7662.22 1752.18C7657.05 1738.68 7654.34 1725.02 7654.83 1711.65C7657.56 1719.78 7661.08 1728.35 7665.16 1737.58C7666.53 1740.71 7668.06 1743.8 7669.55 1746.89C7670.26 1748.31 7670.86 1749.75 7671.57 1751.17C7674.38 1756.78 7677.36 1762.37 7680.62 1767.81L7680.83 1768.15C7682.64 1771.15 7684.5 1774.13 7686.42 1777.07C7701.31 1799.66 7720.46 1819.2 7745.5 1830.73C7798.02 1854.98 7856.11 1866.41 7913.79 1867.46C7962.76 1868.41 8011.58 1862.08 8059.27 1851.08C8085.21 1845.17 8157.04 1837.36 8165.61 1806.85C8166.53 1803.66 8164.08 1789.48 8161.03 1768.69C8207.51 1801.64 8257.62 1848.25 8310.31 1863.68C8376.2 1882.89 8430.22 1925.12 8483.4 1966.94C8569.86 2034.98 8657.22 2102.88 8752.83 2157.79C8844.22 2210.28 8955.05 2216.05 9056.24 2185.37C9135.38 2161.39 9207.12 2113.96 9260.65 2050.97C9242.25 2107.85 9210.19 2160.57 9167.84 2202.88C9122.06 2248.62 9064.92 2282.3 9003.55 2302.51C8930.69 2326.5 8819.81 2350.27 8750.61 2302.04C8691.35 2260.72 8641.36 2200.1 8594.19 2142.32C8582.64 2128.19 8571.21 2114.19 8559.93 2100.73C8491.19 2018.85 8412.75 1937.95 8310.69 1906.06C8258.17 1889.66 8205.96 1900.12 8154.81 1915.64C8110.28 1929.16 8068.52 1930.52 8022.23 1935.22C8003.57 1937.11 7984.84 1937.6 7966.2 1936.75C7886.38 1933.18 7806.41 1906.99 7743.85 1856.5C7719.85 1837.13 7689.59 1805.76 7671.13 1771.52H7671.15Z" fill="#182B53"/>
<path d="M13112.3 2174.61C12748.8 2230.11 12381.3 2258.02 12013.8 2265.37C11844.5 2268.75 11675.2 2267.77 11505.9 2263.14C11421.3 2260.83 11336.6 2257.6 11252.1 2253.56C11219.2 2251.98 11181.7 2260.8 11149.8 2250.61C11141.5 2248 11137.3 2244.47 11135.1 2240.15C11135.1 2230.43 11135 2220.71 11134.8 2211.1C11134.4 2192.53 11133.9 2174.07 11134.1 2155.7C11134.2 2146.51 11134.4 2137.34 11135 2128.23L11135.4 2121.39C11135.6 2119.09 11136.2 2118.1 11136.4 2116.37C11137.6 2113.32 11139.6 2110.39 11142.4 2107.68C11154.3 2097.13 11172.1 2090.92 11189.3 2086.15C11206.8 2081.4 11224.8 2078.09 11243 2075.36C11388.7 2055.61 11538.3 2061.19 11686.1 2052.5C11834.2 2047.14 11982.4 2043.78 12130.7 2041.69C12427.1 2036.16 12723.7 2037.05 13020.3 2036.47L13461.1 2036.15C13446.5 2051.74 13430.4 2065.84 13413.2 2077.87C13326 2138.73 13217.4 2158.6 13112.3 2174.62L13112.3 2174.61Z" fill="#E4EEDE"/>
<path d="M13469.7 2026.53L13465.2 2026.45L13020.3 2021.21C12723.8 2018.56 12427.1 2017.93 12130.4 2021.81C11982 2024.41 11833.7 2028.41 11685.4 2034.38L11574.3 2039.26C11537.5 2040.94 11500.3 2041.36 11463.2 2042.64C11389 2045.11 11314.6 2048.49 11240.6 2060.21C11222.1 2063.23 11203.7 2066.86 11185.4 2072.05C11167.3 2077.55 11148.6 2083.42 11132.7 2097.72C11128.9 2101.49 11125.5 2106.22 11123.4 2111.86C11121.6 2118.29 11121.6 2122.95 11121.4 2127.51C11121.1 2133.9 11121.1 2140.28 11121 2146.65C11116.2 2163.4 11110.4 2179.8 11101.9 2194.95C11094.2 2208.74 11081.3 2229.37 11065.8 2234.7C11049.5 2240.27 11024 2236.76 11006.8 2236.73C10967.5 2236.65 10928.1 2233.76 10889.1 2228.09C10836.4 2220.43 10784.5 2207.75 10734.4 2190.17C10692.3 2175.43 10663.2 2163.86 10635.4 2127.56C10614.2 2099.96 10597.9 2069.04 10584.1 2037.13C10500 1750.34 10412.5 1649.73 10287.7 1575.37C10166.6 1503.17 10142.5 1440.62 10138.8 1428.52C10139.2 1427.42 10139.6 1426.28 10140 1425.19L10140 1425.14C10147.2 1407.84 10160 1392.49 10175 1381.07C10192.5 1367.71 10293.8 1348.54 10448.7 1326.82C10575.4 1499.82 10813.2 1596.69 11066.1 1558.36C11166.6 1543.11 11258.5 1508.19 11337.1 1458.93C11337.7 1458.59 11338.2 1458.21 11338.7 1457.88C11330.2 1463.82 11321.6 1469.29 11312.9 1473.88C11377.2 1440.02 11441.9 1405.93 11499.5 1361.62C11554.5 1319.34 11603 1266.74 11632 1203.88C12226.1 1155.92 12822.3 1126.36 13032.3 1157.97C13165.3 1178.05 13407.1 1579.25 13535.2 1850.11C13539.3 1912.9 13512.5 1976.53 13469.7 2026.51L13469.7 2026.53Z" fill="#E4EEDE"/>
<path d="M11326.6 1442.08C11250.3 1489.88 11160.9 1523.87 11063.1 1538.7C10821.2 1575.42 10594.4 1484.63 10471.1 1323.7C10731.7 1287.92 11131.3 1245.75 11541.4 1211.36C11495.2 1302.63 11421 1382.89 11326.6 1442.08Z" fill="#E4EEDE"/>
<path d="M11312.9 1473.89C11321.6 1469.3 11330.2 1463.83 11338.7 1457.89C11438.8 1394.8 11517.2 1308.17 11564.3 1209.42C11586.9 1207.56 11609.4 1205.7 11632 1203.88C11602.9 1266.74 11554.4 1319.34 11499.5 1361.62C11441.8 1405.93 11377.2 1440.02 11312.9 1473.88L11312.9 1473.89Z" fill="#BBC1CD"/>
<path d="M10635.3 2579.27C10670.4 2458.5 10672.7 2369.02 10604.6 2110.54C10597.7 2084.75 10590.9 2060.41 10584.1 2037.14C10597.9 2069.05 10614.2 2099.97 10635.4 2127.57C10663.2 2163.88 10692.3 2175.45 10734.4 2190.18C10784.5 2207.76 10836.4 2220.44 10889 2228.1C10928 2233.77 10967.4 2236.67 11006.8 2236.74C11024 2236.76 11049.5 2240.27 11065.8 2234.71C11081.3 2229.38 11094.2 2208.75 11101.9 2194.96C11110.4 2179.8 11116.2 2163.4 11121 2146.66C11121 2149.65 11120.8 2152.66 11120.8 2155.64C11120.9 2174.33 11121.6 2192.93 11122.2 2211.42C11127.1 2285.3 11115 2358.19 11097.3 2430.01C11078.1 2507.53 11050.5 2582.62 11017.1 2655.34C10827.2 2634.95 10690.9 2613.63 10647.4 2592.5C10642 2589.87 10637.8 2587.21 10635.3 2584.6C10635.4 2582.86 10635.3 2581.04 10635.3 2579.26V2579.27Z" fill="#BBC1CD"/>
<path d="M11106.7 2432.42C11116.3 2396.46 11123.9 2359.88 11129.4 2323.02C11133.9 2295.65 11135.1 2267.76 11135.1 2240.15C11137.3 2244.47 11141.5 2248 11149.8 2250.61C11181.7 2260.8 11219.2 2251.98 11252.1 2253.56C11336.7 2257.6 11421.3 2260.83 11505.9 2263.14C11675.2 2267.77 11844.5 2268.75 12013.8 2265.37C12381.3 2258.01 12748.8 2230.11 13112.3 2174.61C13217.4 2158.6 13326 2138.72 13413.3 2077.86C13430.4 2065.83 13446.5 2051.73 13461.1 2036.14L13465.2 2036.12L13611.1 2035.53C13619.1 2062.24 13622.1 2081.23 13619 2089.83L13450.5 2655.57C13411.6 2739.18 13326.8 2791.76 13234.6 2789.39C12825.4 2778.76 11642 2722.08 11021.9 2655.87C11056.6 2584.1 11085.8 2509.71 11106.7 2432.43V2432.42Z" fill="#BBC1CD"/>
<path d="M11097.2 2430.01C11115 2358.19 11127.1 2285.31 11122.2 2211.42C11121.6 2192.93 11120.9 2174.32 11120.8 2155.64C11120.8 2152.66 11121 2149.66 11121 2146.66C11121.1 2140.29 11121.1 2133.91 11121.4 2127.52C11121.6 2122.97 11121.6 2118.3 11123.4 2111.87C11125.5 2106.23 11128.8 2101.49 11132.7 2097.73C11148.6 2083.43 11167.3 2077.55 11185.4 2072.06C11203.6 2066.87 11222.1 2063.24 11240.6 2060.22C11314.6 2048.5 11389 2045.12 11463.2 2042.65C11500.3 2041.37 11537.5 2040.95 11574.3 2039.27L11685.4 2034.39C11833.7 2028.42 11982 2024.42 12130.4 2021.82C12427.1 2017.93 12723.7 2018.57 13020.3 2021.22L13465.2 2026.46L13469.6 2026.54L13609.1 2028.99C13609.9 2031.24 13610.5 2033.37 13611.1 2035.54L13465.2 2036.13L13461.1 2036.15L13020.3 2036.47C12723.7 2037.06 12427.1 2036.16 12130.7 2041.69C11982.4 2043.79 11834.3 2047.14 11686.1 2052.5C11538.3 2061.19 11388.7 2055.61 11243 2075.36C11224.8 2078.08 11206.8 2081.39 11189.3 2086.15C11172.1 2090.92 11154.3 2097.13 11142.4 2107.68C11139.6 2110.39 11137.6 2113.32 11136.4 2116.37C11136.2 2118.1 11135.6 2119.09 11135.4 2121.39L11135 2128.23C11134.4 2137.34 11134.2 2146.51 11134.1 2155.7C11133.9 2174.07 11134.4 2192.53 11134.8 2211.1C11135 2220.71 11135.2 2230.43 11135.1 2240.15C11135.1 2267.77 11133.9 2295.66 11129.4 2323.02C11123.9 2359.88 11116.3 2396.45 11106.7 2432.42C11085.8 2509.7 11056.6 2584.09 11021.9 2655.86C11020.3 2655.68 11018.7 2655.52 11017.2 2655.33C11050.5 2582.61 11078.1 2507.52 11097.3 2430L11097.2 2430.01Z" fill="#1C427A"/>
<path d="M11338.7 1457.89C11338.2 1458.22 11337.7 1458.6 11337.1 1458.94C11258.5 1508.2 11166.6 1543.12 11066.1 1558.37C10813.2 1596.7 10575.4 1499.83 10448.7 1326.83C10456.1 1325.78 10463.4 1324.74 10471.1 1323.69C10594.4 1484.62 10821.2 1575.42 11063.1 1538.69C11160.9 1523.86 11250.2 1489.87 11326.6 1442.07C11421 1382.87 11495.2 1302.62 11541.4 1211.35C11549 1210.7 11556.7 1210.06 11564.3 1209.42C11517.1 1308.17 11438.8 1394.79 11338.7 1457.89Z" fill="#1C427A"/>
<path d="M8794.67 1656.35C8700.07 1707.82 8593.23 1736.55 8485.63 1740.07C8430.9 1741.86 8375.97 1737.12 8322.49 1725.42C8315.43 1723.88 8308.28 1722.27 8301.21 1720.83C8301.93 1718.97 8302.66 1717.06 8303.42 1715.04C8323.26 1663.36 8367.25 1554.69 8399.37 1517.48C8405.23 1510.67 8410.72 1506.21 8415.58 1504.95C8446.21 1497.04 8478.54 1503.87 8509.53 1510.68C8626.02 1536.34 8742.52 1562.07 8859.04 1587.78L8864.31 1588.94C8872.09 1590.68 8879.92 1592.5 8887.71 1594.49C8858.48 1617.62 8827.43 1638.5 8794.66 1656.33L8794.67 1656.35Z" fill="#E4EEDE"/>
<path d="M8797.99 1965.41C8718.44 2022.14 8292.92 1743 8292.92 1743C8292.92 1743 8296.02 1734.5 8301.21 1720.84C8308.28 1722.27 8315.43 1723.89 8322.49 1725.43C8375.98 1737.12 8430.91 1741.86 8485.63 1740.08C8593.23 1736.56 8700.07 1707.82 8794.67 1656.36C8827.44 1638.53 8858.49 1617.65 8887.72 1594.52C8915.23 1601.5 8942.31 1610.64 8964.55 1626.78C8994.45 1795.22 8875.92 1909.78 8797.98 1965.42L8797.99 1965.41Z" fill="#BBC1CD"/>
<path d="M8131.52 1630.66C8104.3 1650.22 8075.51 1667.68 8045.52 1682.69C7930.05 1740.49 7808.06 1756.48 7680.64 1747.31C7676.62 1747.03 7673.1 1746.96 7669.55 1746.89C7668.06 1743.8 7666.52 1740.7 7665.16 1737.58C7661.08 1728.35 7657.56 1719.79 7654.83 1711.65C7645.28 1683.49 7646.7 1661.26 7680.68 1640.64C7734.09 1608.2 8099.82 1534.09 8128.97 1532.89C8143.28 1532.31 8160.54 1530.3 8168.68 1535.86C8168.76 1535.93 8168.85 1535.96 8168.94 1536.03C8169.18 1536.17 8169.36 1536.34 8169.54 1536.52C8170.51 1537.31 8171.37 1538.2 8171.98 1539.3C8171.98 1539.3 8136.49 1524.71 8131.53 1630.66H8131.52Z" fill="#E4EEDE"/>
<path d="M7671.56 1751.18C7670.85 1749.76 7670.25 1748.32 7669.54 1746.9C7673.09 1746.97 7676.61 1747.04 7680.63 1747.32C7808.04 1756.49 7930.04 1740.5 8045.51 1682.7C8075.5 1667.69 8104.3 1650.23 8131.51 1630.67C8129.88 1665.82 8131.6 1714.23 8139.1 1780.89C8139.1 1780.89 8121.53 1818.04 8062.13 1835.6C8002.76 1853.15 7775.25 1855 7731.42 1817C7694.45 1784.89 7683.44 1771.51 7680.82 1768.15L7680.61 1767.81C7677.35 1762.37 7674.37 1756.79 7671.56 1751.17V1751.18Z" fill="#BBC1CD"/>
<path d="M8161.43 1582.61C8157.81 1596.06 8155.53 1610.3 8154.08 1624.75C8148.8 1677.09 8155.78 1732.71 8161.02 1768.69C8164.06 1789.48 8166.52 1803.66 8165.6 1806.85C8157.03 1837.36 8085.2 1845.16 8059.26 1851.08C8011.57 1862.09 7962.75 1868.41 7913.78 1867.46C7856.09 1866.41 7798.01 1854.98 7745.49 1830.73C7720.45 1819.19 7701.3 1799.66 7686.41 1777.07C7684.49 1774.13 7682.63 1771.15 7680.82 1768.15C7683.44 1771.51 7694.45 1784.89 7731.42 1817C7775.25 1855 8002.76 1853.15 8062.13 1835.6C8121.53 1818.04 8139.1 1780.89 8139.1 1780.89C8131.6 1714.23 8129.88 1665.82 8131.51 1630.67C8136.47 1524.72 8171.96 1539.31 8171.96 1539.31C8171.35 1538.22 8170.49 1537.32 8169.52 1536.53C8176.29 1541.33 8181.24 1547.33 8184.92 1554.21C8179.25 1555.77 8173.57 1557.32 8167.89 1558.89C8165.44 1568.25 8162.6 1578.3 8161.43 1582.62V1582.61Z" fill="#95A0BA"/>
<path d="M8942.62 1915.46C8909.86 1964.45 8870.32 2003.05 8835.96 2014.81C8746.58 2045.53 8630.34 1986.99 8550.25 1951.36C8471.61 1916.39 8396.44 1873.62 8326.3 1823.78C8305.02 1808.69 8285.51 1767.52 8292.92 1743C8292.92 1743 8718.44 2022.14 8797.99 1965.41C8875.93 1909.77 8994.46 1795.21 8964.56 1626.77C8970.4 1630.95 8975.88 1635.58 8980.98 1640.83C8984.13 1644.03 8986.9 1647.46 8989.5 1651.01C9035.75 1714.4 8999.38 1830.61 8942.62 1915.47V1915.46Z" fill="#95A0BA"/>
<path d="M10287.7 1575.38C10412.5 1649.73 10499.9 1750.35 10584.1 2037.14C10590.9 2060.4 10597.7 2084.74 10604.5 2110.54C10672.7 2369.02 10670.4 2458.5 10635.3 2579.27C10635.3 2581.04 10635.4 2582.87 10635.3 2584.61C10637.8 2587.22 10641.9 2589.88 10647.4 2592.51C10642.1 2591.44 10637.4 2589.33 10633.5 2585.76C10603.1 2557.98 10567.1 2505.22 10533.6 2410.83C10563.1 2418.69 10592.4 2426.84 10621.9 2435.27C10606.7 2339 10578.8 2232.55 10548.1 2133.72C10501.1 1982.32 10447.8 1848.9 10424.4 1797.99C10379.9 1700.83 10289.7 1634.36 10209.5 1565.47C10202.5 1559.46 10195.5 1553.44 10188.7 1547.37C10164.3 1525.59 10138.5 1500.82 10133 1468.99C10132.7 1467.48 10132.2 1466.02 10132.1 1464.49C10130.6 1451.29 10133 1438.36 10138.2 1426.35C10138.2 1426.59 10138.5 1427.44 10138.8 1428.55C10142.4 1440.65 10166.6 1503.2 10287.7 1575.4L10287.7 1575.38Z" fill="#95A0BA"/>
<path d="M8045.64 2884C8017.52 2826.6 8005.22 2765.32 8034.01 2705.2C8056.08 2659.13 8095.46 2624.13 8133.85 2590.42C8237.39 2499.48 8341.06 2408.45 8451.37 2325.85C8473.94 2308.97 8497.3 2292.15 8524.23 2283.8C8603.14 2259.37 8678.61 2332.25 8754.72 2350.73C8857.46 2375.69 8964.52 2364.22 9064.5 2332.32C9113.76 2316.62 9158.93 2289.96 9197.68 2255.89C9220.69 2240.59 9241.84 2222.73 9259.96 2201.8C9300.57 2154.88 9324.46 2095.26 9336.29 2034.39C9354.34 1941.73 9345.31 1843.37 9306.78 1757.2C9272.27 1680.04 9218.62 1632.33 9155.2 1580.08C9146.67 1573.08 9140.54 1563.82 9134.56 1554.57C9176.36 1515.17 9225.92 1497.05 9279.52 1486.45C9307.02 1481.02 9335.57 1477.51 9364.64 1474.07C9482.78 1460 9800.23 1455.08 9831.72 1476.9C9843.13 1484.79 9853.55 1494.64 9863.18 1505.87C9880.9 1526.54 9895.76 1552.21 9908.23 1580.9C9926.66 1602.07 9944.26 1623.84 9960.9 1646.22C9994.75 1691.81 10023.6 1739.2 10047.9 1787.97C10072 1836.13 10091.6 1885.67 10106.4 1936.44C10074.3 1940.44 10045.1 1935.8 10021.8 1905.79C9994.72 1870.81 9973.54 1831.39 9958.4 1789.81C9957.39 1782.76 9956.58 1775.69 9955.43 1768.66L9946.78 1720.98L9936.37 1673.69L9923.4 1627.08C9918.63 1611.68 9913.49 1596.4 9908.29 1581.18C9911.43 1596.99 9914.81 1612.7 9918.29 1628.35L9920.48 1640.46C9903.54 1739.96 9873.14 1856.4 9778.42 1891.14C9708.97 1916.62 9625.25 1887.41 9561.05 1924.16C9489.88 1964.88 9480.82 2060.98 9452.98 2138.07C9410.45 2255.78 9309.42 2344.94 9197.06 2400.1C9084.74 2455.25 8960.51 2480.66 8837.82 2505.51C8723.65 2528.63 8607.53 2552.36 8505.04 2607.68C8416.36 2655.56 8342.59 2724.81 8262.75 2785.21C8200.26 2832.47 8118.35 2859.31 8060.48 2910.29C8060.36 2910.39 8060.23 2910.54 8060.09 2910.67C8055.01 2901.86 8050.11 2892.97 8045.67 2883.99L8045.64 2884Z" fill="#E4EEDE"/>
<path d="M9979.83 2119.72C9978.63 2110.31 9978.56 2100.7 9978.22 2091.25C9976.89 2052.02 9976.34 2012.79 9973.94 1973.63C9973.02 1958.72 9973.41 1934.9 9969.48 1914.06C9967.97 1872.48 9964.24 1831 9958.39 1789.82C9973.53 1831.4 9994.71 1870.81 10021.8 1905.8C10045.1 1935.81 10074.3 1940.45 10106.4 1936.45C10125.2 2001.01 10136.4 2067.51 10140.2 2135.36C10143.8 2198.93 10140.9 2263.69 10131.4 2329.25C10131 2332.28 10130.7 2335.27 10130.2 2338.28C10123.2 2383.73 10077.9 2378.37 10037.2 2369.52C10036.9 2368.59 10036.5 2367.62 10036.2 2366.7C10009.5 2286.46 9990.61 2203.62 9979.82 2119.75L9979.83 2119.72Z" fill="#BBC1CD"/>
<path d="M9306.78 1757.19C9345.32 1843.36 9354.34 1941.72 9336.29 2034.38C9324.46 2095.25 9300.57 2154.87 9259.96 2201.79C9241.84 2222.71 9220.69 2240.58 9197.68 2255.88C9269.76 2192.54 9319.41 2103.07 9329.69 2007.49C9338.16 1928.92 9319.84 1848.53 9281.56 1779.69C9241.61 1707.89 9187 1669.21 9121.54 1624.96C9116.88 1621.83 9112.19 1618.29 9108.61 1614.05C9106.21 1611.28 9104.23 1608.24 9103.38 1604.65C9100.92 1594.12 9107.7 1583.81 9114.64 1575.54C9121.04 1567.88 9127.74 1560.99 9134.57 1554.55C9140.55 1563.81 9146.68 1573.06 9155.21 1580.06C9218.62 1632.31 9272.27 1680.02 9306.79 1757.18L9306.78 1757.19Z" fill="#95A0BA"/>
<path d="M8459.22 2945.67C8474.8 2938.28 8489.19 2931.27 8503.22 2924.69C8539.6 2907.66 8573.24 2893.86 8617.8 2885.42C8681.82 2873.28 8746.17 2862.84 8809.56 2847.7C9029.61 2795.19 9236.16 2687.1 9404.72 2536.23C9473.12 2475.03 9539.47 2404.49 9627.7 2379.32C9705.24 2357.2 9784.46 2373.8 9860.6 2404.55C9840.79 2413.58 9816.33 2412.23 9779.67 2413.89C9691.11 2417.89 9598.64 2431.87 9528.13 2486.28C9446.19 2549.51 9382.77 2631.81 9293.44 2686.85C9164.33 2766.36 9013.9 2816.84 8872.49 2869.39C8669.72 2944.76 8464.03 3002.55 8262.41 3078.15C8245.56 3084.46 8227.6 3090.9 8209.96 3087.47C8195.68 3084.73 8183.93 3076.06 8173.66 3065.46C8176.9 3064.43 8180.19 3063.38 8183.25 3062.24C8276.87 3027.37 8368.97 2988.44 8459.22 2945.67Z" fill="#95A0BA"/>
<path d="M9908.07 2341.46C9908.01 2341.84 9907.92 2342.22 9907.85 2342.59C9912.99 2327.37 9918.09 2312.09 9922.81 2296.68L9935.73 2250.04L9946.15 2202.78L9954.88 2155.12C9965.4 2091.33 9970.06 2026.61 9970.41 1961.93C9970.39 1945.96 9970.08 1930.02 9969.48 1914.07C9973.41 1934.91 9973.03 1958.73 9973.94 1973.64C9976.34 2012.81 9976.89 2052.03 9978.22 2091.26C9978.56 2100.71 9978.63 2110.32 9979.83 2119.73C9990.61 2203.61 10009.5 2286.44 10036.2 2366.68C10036.6 2367.6 10036.9 2368.58 10037.2 2369.5C10023.5 2366.53 10010.3 2363.16 9999.24 2361.19C9969.53 2355.89 9937.94 2350.89 9907.8 2342.72C9907.78 2342.75 9907.79 2342.76 9907.77 2342.78C9907.8 2342.71 9907.83 2342.64 9907.84 2342.59C9907.93 2342.2 9907.99 2341.83 9908.08 2341.44L9908.07 2341.46Z" fill="#95A0BA"/>
<path d="M8060.46 2910.3C8118.33 2859.32 8200.24 2832.48 8262.73 2785.22C8342.57 2724.82 8416.34 2655.57 8505.02 2607.69C8607.51 2552.36 8723.63 2528.63 8837.8 2505.52C8960.5 2480.67 9084.72 2455.26 9197.04 2400.11C9309.4 2344.95 9410.43 2255.79 9452.96 2138.08C9480.8 2061 9489.86 1964.89 9561.03 1924.17C9625.23 1887.42 9708.94 1916.63 9778.4 1891.15C9873.13 1856.41 9903.52 1739.97 9920.46 1640.47V1640.55L9926.81 1675.69L9933.8 1719.53L9934.37 1723.1L9940.25 1770.71C9946.98 1834.25 9950.83 1898.04 9950.53 1961.87C9950.62 2006.91 9948.51 2051.92 9944.94 2096.84C9943.45 2115.59 9941.78 2134.32 9939.75 2153.04L9933.8 2200.64L9926.24 2248.04L9925.86 2250.21L9917.73 2295.4C9914.36 2310.67 9911.12 2326.02 9908.06 2341.44C9907.97 2341.83 9907.91 2342.2 9907.82 2342.59C9907.82 2342.64 9907.78 2342.7 9907.75 2342.78C9905.42 2349.97 9903.21 2355.76 9901.25 2359.54C9888.15 2384.65 9875.7 2397.64 9860.58 2404.53C9784.44 2373.78 9705.22 2357.18 9627.68 2379.3C9539.45 2404.47 9473.1 2475.01 9404.7 2536.21C9236.14 2687.08 9029.59 2795.17 8809.54 2847.68C8746.15 2862.82 8681.8 2873.26 8617.78 2885.4C8573.21 2893.85 8539.58 2907.64 8503.2 2924.67C8489.17 2931.25 8474.79 2938.25 8459.2 2945.65C8368.95 2988.42 8276.84 3027.35 8183.23 3062.22C8180.17 3063.36 8176.88 3064.41 8173.64 3065.44C8171.18 3062.93 8168.85 3060.27 8166.55 3057.6C8163.18 3053.58 8159.87 3049.48 8156.75 3045.39C8126.93 3006.53 8088.88 2960.42 8060.05 2910.67C8060.2 2910.55 8060.32 2910.4 8060.44 2910.29L8060.46 2910.3Z" fill="#BBC1CD"/>
<path d="M9970.41 1961.91C9970.05 2026.59 9965.4 2091.31 9954.88 2155.1L9946.15 2202.76L9935.73 2250.02L9922.81 2296.66C9918.08 2312.06 9912.99 2327.35 9907.85 2342.57C9907.91 2342.2 9908.01 2341.82 9908.07 2341.44C9911.12 2326.02 9914.37 2310.67 9917.74 2295.4L9925.87 2250.21L9926.25 2248.04L9933.81 2200.64L9939.76 2153.04C9941.78 2134.32 9943.46 2115.59 9944.95 2096.84C9948.52 2051.91 9950.63 2006.91 9950.54 1961.87C9950.84 1898.04 9946.98 1834.25 9940.26 1770.71L9934.38 1723.1L9933.81 1719.53L9926.82 1675.69L9920.48 1640.55V1640.47L9918.28 1628.36C9914.8 1612.71 9911.43 1597.01 9908.28 1581.19C9913.49 1596.41 9918.62 1611.68 9923.39 1627.09L9936.36 1673.7L9946.77 1720.99L9955.42 1768.67C9956.57 1775.7 9957.38 1782.77 9958.39 1789.82C9964.23 1831 9967.97 1872.48 9969.48 1914.06C9970.08 1930 9970.39 1945.95 9970.41 1961.92V1961.91Z" fill="#1C427A"/>
<path d="M6647.62 2738.51C6713.09 2759.89 6777.3 2785.46 6842.39 2807.94C6857.61 2813.18 6872.79 2818.42 6887.98 2823.66C6869.14 2879.84 6873.07 2931.72 6877.16 2934.71C6872.26 2935.15 6823.92 2918.21 6789.37 2904.24C6774.69 2898.33 6763.29 2893.58 6760.09 2892.14C6716.98 2872.58 6674.31 2851.78 6633.08 2828.45C6607.12 2813.8 6581.64 2798.14 6557.17 2781.13C6535.82 2766.34 6507.1 2751.29 6505.11 2722.16C6504.73 2716.3 6505.55 2709.99 6507.84 2703.39C6510.91 2694.65 6515.59 2686.67 6521.21 2679.25C6529.89 2684.67 6538.68 2689.92 6547.6 2694.89C6579.47 2712.55 6613 2727.2 6647.62 2738.51Z" fill="#BBC1CD"/>
<path d="M6981.01 2711.23C6980.77 2711.44 6980.53 2711.65 6980.3 2711.86C6977.32 2714.54 6974.13 2717.59 6970.81 2720.91C6970.42 2721.3 6970.06 2721.67 6969.68 2722.05C6966.36 2725.43 6962.89 2729.09 6959.36 2733.01C6959.1 2733.3 6958.85 2733.61 6958.57 2733.93C6954.99 2737.95 6951.36 2742.19 6947.76 2746.64C6947.67 2746.74 6947.61 2746.82 6947.55 2746.9C6944.07 2751.2 6940.65 2755.71 6937.34 2760.28C6936.85 2760.98 6936.35 2761.64 6935.86 2762.35C6932.68 2766.77 6929.7 2771.28 6926.83 2775.84C6926.29 2776.7 6925.78 2777.53 6925.25 2778.4C6922.48 2782.99 6919.84 2787.64 6917.5 2792.28C6917.15 2792.96 6916.86 2793.62 6916.54 2794.28C6914.14 2799.18 6911.95 2804.07 6910.21 2808.9C6907.08 2817.65 6904.23 2825.61 6901.57 2833.17C6888.81 2869.43 6881.5 2893.34 6878.66 2916.18L6878.63 2916.2C6883.54 2919.79 6888.71 2923.09 6894.04 2926.11C6894.2 2926.19 6894.33 2926.28 6894.5 2926.37C6883.96 2932.61 6877.17 2934.75 6877.17 2934.75V2934.73C6873.06 2931.74 6869.13 2879.86 6887.97 2823.68C6897.93 2794.03 6914.09 2763.2 6940.13 2737.69V2737.56C6983.77 2692.48 6996.55 2699.55 6996.55 2699.55C6996.55 2699.55 7000.06 2700.79 7002.74 2706.95C6997.44 2706.76 6992.22 2706.49 6986.94 2706.28C6985.05 2707.8 6983.15 2709.32 6981 2711.25L6981.01 2711.23Z" fill="#95A0BA"/>
<path d="M3593.35 715.393C4111.87 660.113 4642.45 721.143 5134.88 892.713C5097.51 996.763 5008.18 1081.09 4897.86 1088.34C4787.54 1095.59 4679.36 1060.25 4574.46 1025.35C4148.62 883.703 3683.15 1071.44 3262.15 1226.9C3269.47 1156.45 3283.59 1078.07 3323.91 1019.83C3408.81 897.213 3445.05 731.203 3593.35 715.393Z" fill="#FF9750"/>
<path d="M3970.05 597.915C4488.67 543.625 5019.14 605.655 5511.24 778.155C5473.67 882.135 5384.18 966.295 5273.85 973.335C5163.51 980.375 5055.41 944.825 4950.57 909.735C4525 767.275 4059.17 954.135 3637.88 1108.79C3645.33 1038.35 3659.6 959.995 3700.04 901.835C3785.17 779.375 3821.72 613.435 3970.06 597.905L3970.05 597.915Z" fill="#FFA76C"/>
<path d="M4216.24 479.323C4790.35 380.913 5386.16 411.293 5947.28 567.603C5913 686.253 5819.4 786.593 5696.93 802.513C5574.46 818.423 5451.37 786.703 5331.94 755.243C4847.17 627.553 4341.6 869.863 3883.31 1073.04C3886.47 993.983 3896.65 905.603 3937.47 837.823C4023.41 695.103 4052.03 507.473 4216.23 479.323H4216.24Z" fill="#FCB07C"/>
<path d="M5921.38 633.01C5870.66 620.8 5819.36 610.63 5770.59 592.27C5717.43 572.26 5666.27 540.23 5634.28 494.18C5739.55 514.4 5844.01 538.82 5947.28 567.59C5940.74 590.22 5932.02 612.16 5921.38 633V633.01Z" fill="#FFCA9C"/>
<path d="M-273.367 1265.93C-98.0172 1204.83 911.533 1066.07 1094.69 1035.53C1253 1009.13 1413.03 994.412 1571.83 971.082C1875.22 926.522 2254.23 886.732 2529.61 737.142C2714.76 636.562 3033.02 518.482 3240.23 480.242C3833.32 370.792 4395.84 184.642 4997.45 144.812C5432.29 116.022 5849.21 386.252 6280.49 383.682C6327.06 383.402 6352.3 436.792 6323.83 473.642C6261.23 554.682 6159.47 607.712 6056.88 628.112C5918.47 655.632 5775.73 635.622 5635.08 624.042C5469.33 610.392 5264.98 536.232 5117.06 612.262C4856.13 746.382 4458.57 843.792 4139.8 975.922C4058.38 1009.67 4079.51 1130.77 4167.51 1135.53C4314.31 1143.47 4467.44 1148.42 4547.14 1133.89C4699.63 1106.11 4871.49 1108.72 4989.23 1212.54C5025.08 1244.16 5051.51 1286.1 5061.15 1332.92C5082.14 1434.83 5018.77 1487.54 4952.21 1521.93C4705.16 1649.58 4398.73 1570.96 4134.56 1657.77C3976.71 1709.64 3842.86 1817.83 3687.31 1876.23C3293.75 2023.99 2862.4 1830.16 2442.82 1804.17C2188.81 1788.44 1935.56 1835.33 1685.39 1882.01C1503.99 1915.86 112.573 2213 -51.9872 2296.5L-249.567 1384.24" fill="#FFC197"/>
<path d="M4691.33 1210.58C4743.26 1201.28 4796.8 1196.34 4848.65 1206.08C4900.5 1215.82 4950.87 1241.6 4981.93 1284.25C5012.98 1326.9 5021.35 1387.56 4995.16 1433.35C4975.76 1467.28 4940.29 1489.66 4902.99 1501.35C4865.69 1513.04 4826.18 1515.26 4787.15 1517.39C4685.24 1447.07 4650.53 1327.48 4691.33 1210.58Z" fill="#FFD9CF"/>
<path d="M6321.2 401.324C6242.34 456.894 6142.54 482.444 6043.45 474.184C6038.7 436.774 6040.9 398.634 6049.12 361.844C6125.9 375.694 6202.96 384.134 6280.49 383.674C6297.42 383.574 6311.47 390.614 6321.2 401.324Z" fill="#FFCA9C"/>
<path d="M3152.59 1685.38C3280.58 1595.08 3444.52 1577.22 3591.24 1632.08C3695.77 1671.16 3811.44 1680.88 3920.38 1656.3C4039.06 1629.52 4148.23 1565.36 4268.99 1550.62C4380.66 1536.99 4491.27 1566.7 4598.36 1604.76C4444.46 1614.13 4286.56 1612.13 4141.35 1659.85C3982.77 1711.96 3848.3 1820.65 3692.03 1879.32C3296.66 2027.76 2863.3 1833.03 2441.79 1806.93C2186.61 1791.13 1932.19 1838.23 1680.85 1885.13C1498.61 1919.13 118.213 2249 -47.1075 2332.89L-87.6875 2119.03C487.963 1871.08 2233.28 1507.23 2854.81 1589.62C2953.52 1602.71 3056.92 1622.43 3133.98 1684.6C3139.37 1688.95 3146.92 1689.38 3152.58 1685.39L3152.59 1685.38Z" fill="#F9A373"/>
<path d="M3770.33 1262.58C3968.64 1138.25 4229.41 1180.4 4464 1144.97C4380.89 1148.31 4272.17 1144.16 4166.56 1138.45C4077.33 1133.62 4056.17 1011.01 4138.72 976.798C4461.38 843.088 4863.72 744.488 5127.8 608.738C5277.54 531.768 5477.14 615.668 5644.94 629.488C5787.32 641.218 5939.07 652.648 6079.19 624.778C6088.45 622.938 6097.69 620.738 6106.9 618.378C6057.13 623.008 6006.31 621.238 5956.79 615.328C5846.82 602.218 5739.96 570.518 5630.97 550.838C5543.69 535.068 5454.62 526.908 5369.9 500.638C5292.25 476.548 5232.84 461.118 5187.71 400.508C5176.77 385.818 5162.37 373.798 5145.02 367.958C5116.45 358.338 5078.19 358.048 5077.54 425.058C5091.93 477.408 5059.66 537.368 5018.16 572.368C4976.66 607.368 4923.46 624.808 4871.31 639.898C4666.95 699.058 4455.95 734.568 4254.15 801.958C4052.35 869.338 3855.28 973.238 3723.97 1140.64C3723.97 1140.64 3627.54 1269.14 3713.85 1276.71C3733.63 1278.44 3753.5 1273.13 3770.32 1262.59L3770.33 1262.58Z" fill="#F9A373"/>
</g>
<defs>
<radialGradient id="paint0_radial_1199_355" cx="0" cy="0" r="1" gradientUnits="userSpaceOnUse" gradientTransform="translate(6549.49 1391.16) scale(1240.98 1240.98)">
<stop stop-color="#FFCA54"/>
<stop offset="1" stop-color="#FFCA54" stop-opacity="0.04"/>
</radialGradient>
</defs>
</svg>
